<svg xmlns="http://www.w3.org/2000/svg" version="1.1" xmlns:xlink="http://www.w3.org/1999/xlink" xmlns:svgjs="http://svgjs.dev/svgjs" width="1000" height="386" viewBox="0 0 1000 386"><g transform="matrix(1,0,0,1,-0.6060527136767746,0.32793433902136826)"><svg viewBox="0 0 396 153" data-background-color="#212529" preserveAspectRatio="xMidYMid meet" height="386" width="1000" xmlns="http://www.w3.org/2000/svg" xmlns:xlink="http://www.w3.org/1999/xlink"><defs></defs><g id="tight-bounds" transform="matrix(1,0,0,1,0.2399968852005827,-0.1299830270062472)"><svg viewBox="0 0 395.52 153.25996216330472" height="153.25996216330472" width="395.52"><g><svg viewBox="0 0 581.5710451155378 225.35284276314957" height="153.25996216330472" width="395.52"><g transform="matrix(1,0,0,1,0,31.14500214743964)"><svg viewBox="0 0 397.4975999999999 163.0628384682703" height="163.0628384682703" width="397.4975999999999"><g><svg viewBox="0 0 397.4975999999999 163.0628384682703" height="163.0628384682703" width="397.4975999999999"><g><rect width="397.4975999999999" height="6.81472466152737" x="0" y="83.59497908789734" fill="#ffffff" opacity="1" stroke-width="0" stroke="transparent" fill-opacity="1" class="rect-o-0" data-fill-palette-color="primary" rx="1%" id="o-0" data-palette-color="#ffffff"></rect></g><g transform="matrix(1,0,0,1,0.9887999999999693,0)"><svg viewBox="0 0 395.52 75.56716207824468" height="75.56716207824468" width="395.52"><g transform="matrix(1,0,0,1,0,0)"><svg width="395.52" viewBox="3.450000047683716 -35.29999923706055 241.52999877929688 46.150001525878906" height="75.56716207824468" data-palette-color="#ffffff"><path d="M3.45-34.55L21.9-34.55 21.2-29.75 9.95-29.75 9.95-19.95 19.8-19.95 19.8-15.2 9.95-15.2 9.95-4.85 22-4.85 22 0 3.45 0 3.45-34.55ZM27.25-34.55L33.75-34.55 33.75-5.3 46.05-5.3 45.35 0 27.25 0 27.25-34.55ZM50.05-34.55L68.5-34.55 67.8-29.75 56.55-29.75 56.55-19.95 66.39-19.95 66.39-15.2 56.55-15.2 56.55-4.85 68.59-4.85 68.59 0 50.05 0 50.05-34.55ZM94.19-24.85Q98.34-24.85 101.84-22.7L101.84-22.7 101.84-10.1Q101.84-6.95 102.39-5.75 102.94-4.55 104.24-4.55L104.24-4.55Q108.29-4.55 108.29-15.5L108.29-15.5Q108.29-22.65 104.74-26.6 101.19-30.55 94.24-30.55L94.24-30.55Q89.39-30.55 85.89-28.25 82.39-25.95 80.57-21.75 78.74-17.55 78.74-12.05L78.74-12.05Q78.74-3.45 82.74 1.33 86.74 6.1 94.24 6.1L94.24 6.1Q96.54 6.1 98.84 5.63 101.14 5.15 103.04 4.4L103.04 4.4 104.54 8.8Q99.59 10.85 94.19 10.85L94.19 10.85Q87.79 10.85 82.99 8.08 78.19 5.3 75.59 0.13 72.99-5.05 72.99-12.05L72.99-12.05Q72.99-18.75 75.69-24.03 78.39-29.3 83.24-32.3 88.09-35.3 94.24-35.3L94.24-35.3Q100.39-35.3 104.87-32.65 109.34-30 111.67-25.5 113.99-21 113.99-15.6L113.99-15.6Q113.99-11.25 112.82-7.78 111.64-4.3 109.49-2.3 107.34-0.3 104.44-0.3L104.44-0.3Q102.04-0.3 100.52-1.78 98.99-3.25 98.54-5.25L98.54-5.25Q97.69-3.15 96.07-1.8 94.44-0.45 92.09-0.45L92.09-0.45Q88.14-0.45 86.04-3.45 83.94-6.45 83.94-11.6L83.94-11.6Q83.94-17.95 86.67-21.4 89.39-24.85 94.19-24.85L94.19-24.85ZM92.89-4.6Q95.04-4.6 96.49-7.35L96.49-7.35 96.49-20.3Q95.24-20.8 94.09-20.8L94.09-20.8Q91.89-20.8 90.79-18.65 89.69-16.5 89.69-11.6L89.69-11.6Q89.69-7.8 90.44-6.2 91.19-4.6 92.89-4.6L92.89-4.6ZM136.89 0L130.09-13.9 126.54-13.9 126.54 0 120.04 0 120.04-34.55 129.14-34.55Q142.19-34.55 142.19-24.4L142.19-24.4Q142.19-21.1 140.64-18.73 139.09-16.35 135.99-15.1L135.99-15.1 144.04 0 136.89 0ZM126.54-18.55L129.49-18.55Q132.59-18.55 134.04-19.95 135.49-21.35 135.49-24.4L135.49-24.4Q135.49-27.2 133.97-28.5 132.44-29.8 129.09-29.8L129.09-29.8 126.54-29.8 126.54-18.55ZM171.14-34.55L171.14 0 162.84 0 152.74-28.15 152.89-26.8Q153.59-19.8 153.59-14.35L153.59-14.35 153.59 0 147.79 0 147.79-34.55 155.99-34.55 166.19-6.4Q165.89-8.35 165.61-11.63 165.34-14.9 165.34-18.15L165.34-18.15 165.34-34.55 171.14-34.55ZM178.03-34.55L184.53-34.55 184.53 0 178.03 0 178.03-34.55ZM214.78-34.55L214.78 0 206.48 0 196.38-28.15 196.53-26.8Q197.23-19.8 197.23-14.35L197.23-14.35 197.23 0 191.43 0 191.43-34.55 199.63-34.55 209.83-6.4Q209.53-8.35 209.26-11.63 208.98-14.9 208.98-18.15L208.98-18.15 208.98-34.55 214.78-34.55ZM234.68-35.3Q237.78-35.3 240.21-34.27 242.63-33.25 244.78-31.25L244.78-31.25 241.43-27.8Q239.73-29.2 238.26-29.8 236.78-30.4 234.88-30.4L234.88-30.4Q231.28-30.4 229.11-27.33 226.93-24.25 226.93-17.3L226.93-17.3Q226.93-12.4 227.71-9.53 228.48-6.65 230.03-5.43 231.58-4.2 233.98-4.2L233.98-4.2Q236.58-4.2 238.73-5.5L238.73-5.5 238.73-14.7 234.23-14.7 233.58-19.5 244.98-19.5 244.98-2.65Q242.58-1.05 239.78-0.15 236.98 0.75 234.08 0.75L234.08 0.75Q220.18 0.75 220.18-17.3L220.18-17.3Q220.18-23.15 222.11-27.2 224.03-31.25 227.31-33.27 230.58-35.3 234.68-35.3L234.68-35.3Z" opacity="1" transform="matrix(1,0,0,1,0,0)" fill="#ffffff" class="undefined-text-0" data-fill-palette-color="primary" id="text-0"></path></svg></g></svg></g><g transform="matrix(1,0,0,1,0,98.43752075907737)"><svg viewBox="0 0 395.52 64.62531770919291" height="64.62531770919291" width="395.52"><g transform="matrix(1,0,0,1,0,0)"><svg width="395.52" viewBox="0.30000001192092896 -37 302.95001220703125 49.5" height="64.62531770919291" data-palette-color="#00d1cd"><path d="M6.65-33.5L6.65-33.5Q9.2-35.15 12.13-36.08 15.05-37 17.85-37L17.85-37Q18.2-37 18.63-36.98 19.05-36.95 19.85-36.9L19.85-36.9 12.15-1Q13.3-0.75 14.63-0.18 15.95 0.4 18.65 1.85L18.65 1.85Q22.7 4.05 24.85 4.75 27 5.45 28.95 5.45L28.95 5.45Q30.1 5.45 31.13 5.25 32.15 5.05 33.15 4.65L33.15 4.65Q32.75 8.25 31.35 10.38 29.95 12.5 27.95 12.5L27.95 12.5Q26.15 12.5 24.13 11.53 22.1 10.55 18 7.3L18 7.3Q13.3 3.5 10.7 2.33 8.1 1.15 5.65 1.15L5.65 1.15Q5.2 1.15 4.95 1.15 4.7 1.15 4.5 1.2L4.5 1.2 11.95-33.45Q8.55-32.05 6.75-29.25 4.95-26.45 4.95-22.55L4.95-22.55Q4.95-21.6 5.08-20.9 5.2-20.2 5.5-19.55L5.5-19.55Q5.6-19.35 5.63-19.28 5.65-19.2 5.65-19.15L5.65-19.15Q2.85-19.15 1.58-20.33 0.3-21.5 0.3-24L0.3-24Q0.3-26.5 1.98-29 3.65-31.5 6.65-33.5ZM37.3-20.65L37.3-20.65Q37.3-16.5 33.9-13.43 30.5-10.35 25.8-10.1L25.8-10.1Q25.75-9.25 25.73-8.83 25.7-8.4 25.7-8.1L25.7-8.1Q25.7-5.8 26.48-4.85 27.25-3.9 29.3-3.9L29.3-3.9Q31.65-3.9 33.63-4.98 35.6-6.05 38.15-8.95L38.15-8.95 39.85-8.95Q36.95-4.25 33.55-1.98 30.15 0.3 26.1 0.3L26.1 0.3Q22.25 0.3 20.28-1.7 18.3-3.7 18.3-7.65L18.3-7.65Q18.3-10.5 19.2-13.7 20.1-16.9 21.6-19.4L21.6-19.4Q23.45-22.4 26.03-23.93 28.6-25.45 31.8-25.45L31.8-25.45Q34.55-25.45 35.93-24.28 37.3-23.1 37.3-20.65ZM32.2-22.8L32.2-22.8Q30.5-22.8 28.78-19.78 27.05-16.75 26.2-12.5L26.2-12.5Q29.1-12.7 31.28-15.18 33.45-17.65 33.45-20.75L33.45-20.75Q33.45-21.8 33.15-22.3 32.85-22.8 32.2-22.8ZM54.9-22.7L54.9-22.7 54.9-22.35 55.45-25 62.65-25 59.05-8Q58.95-7.55 58.9-7.18 58.85-6.8 58.85-6.4L58.85-6.4Q58.85-5.3 59.35-4.78 59.85-4.25 60.9-4.25L60.9-4.25Q62.2-4.25 63.25-5.48 64.3-6.7 64.95-8.95L64.95-8.95 67.05-8.95Q65.45-4.35 62.9-2.02 60.35 0.3 57 0.3L57 0.3Q54.85 0.3 53.58-0.9 52.3-2.1 52.1-4.3L52.1-4.3Q50.55-2 48.68-0.85 46.8 0.3 44.65 0.3L44.65 0.3Q41.55 0.3 39.78-1.8 38-3.9 38-7.75L38-7.75Q38-10.55 38.85-13.6 39.7-16.65 41.2-19.15L41.2-19.15Q43.05-22.1 45.5-23.68 47.95-25.25 50.85-25.25L50.85-25.25Q52.8-25.25 53.85-24.58 54.9-23.9 54.9-22.7ZM52.05-8.95L54.45-20.25Q54.45-21 53.9-21.58 53.35-22.15 52.4-22.15L52.4-22.15Q49.65-22.15 47.53-17.55 45.4-12.95 45.4-8.45L45.4-8.45Q45.4-6.5 45.95-5.53 46.5-4.55 47.9-4.55L47.9-4.55Q49.2-4.55 50.43-5.8 51.65-7.05 52.05-8.95L52.05-8.95ZM74.1-19L70.1 0 62.9 0 68.2-25 75.4-25 74.75-21.9Q76.95-23.75 78.23-24.38 79.5-25 80.8-25L80.8-25Q82.35-25 83.3-23.93 84.25-22.85 84.25-21.25L84.25-21.25Q84.25-19.7 83.25-18.65 82.25-17.6 80.65-17.6L80.65-17.6Q79.8-17.6 79.33-18 78.85-18.4 78.65-19.65L78.65-19.65Q78.5-20.45 78.3-20.68 78.1-20.9 77.75-20.9L77.75-20.9Q76.9-20.9 76.15-20.55 75.4-20.2 74.1-19L74.1-19ZM95.75-5.35L95.75-5.35Q95.75-6.25 95.98-7.6 96.2-8.95 96.9-11.9L96.9-11.9Q97.6-14.75 97.8-16 98-17.25 98-18.1L98-18.1Q98-19.35 97.55-20 97.1-20.65 96.2-20.65L96.2-20.65Q95-20.65 93.98-19.43 92.95-18.2 92.3-16.05L92.3-16.05 88.9 0 81.7 0 87-25 94.2-25 93.65-22.4Q94.9-23.8 96.35-24.5 97.8-25.2 99.5-25.2L99.5-25.2Q102.15-25.2 103.6-23.75 105.05-22.3 105.05-19.55L105.05-19.55Q105.05-18.4 104.78-16.82 104.5-15.25 103.7-12L103.7-12Q103.05-9.45 102.85-8.4 102.65-7.35 102.65-6.65L102.65-6.65Q102.65-5.6 103.15-5.08 103.65-4.55 104.65-4.55L104.65-4.55Q105.9-4.55 106.8-5.4 107.7-6.25 108.85-8.95L108.85-8.95 110.95-8.95Q109.35-4.3 107.08-2 104.8 0.3 101.65 0.3L101.65 0.3Q98.85 0.3 97.3-1.23 95.75-2.75 95.75-5.35ZM132.05-31.65L132.05-31.65Q132.05-30 130.88-28.85 129.7-27.7 128.05-27.7L128.05-27.7Q126.4-27.7 125.25-28.85 124.1-30 124.1-31.65L124.1-31.65Q124.1-33.3 125.25-34.48 126.4-35.65 128.05-35.65L128.05-35.65Q129.7-35.65 130.88-34.48 132.05-33.3 132.05-31.65ZM119.3-5.7L119.3-5.7Q119.3-6.35 119.4-7.18 119.5-8 119.7-8.95L119.7-8.95 123.1-25 130.3-25 126.7-8Q126.6-7.55 126.55-7.18 126.5-6.8 126.5-6.4L126.5-6.4Q126.5-5.4 126.98-4.98 127.45-4.55 128.55-4.55L128.55-4.55Q129.95-4.55 131.2-5.78 132.45-7 133.05-8.95L133.05-8.95 135.15-8.95Q133.55-4.4 130.85-2.05 128.15 0.3 124.65 0.3L124.65 0.3Q122.15 0.3 120.73-1.28 119.3-2.85 119.3-5.7ZM144.8-5.35L144.8-5.35Q144.8-6.25 145.03-7.6 145.25-8.95 145.95-11.9L145.95-11.9Q146.65-14.75 146.85-16 147.05-17.25 147.05-18.1L147.05-18.1Q147.05-19.35 146.6-20 146.15-20.65 145.25-20.65L145.25-20.65Q144.05-20.65 143.03-19.43 142-18.2 141.35-16.05L141.35-16.05 137.95 0 130.75 0 136.05-25 143.25-25 142.7-22.4Q143.95-23.8 145.4-24.5 146.85-25.2 148.55-25.2L148.55-25.2Q151.2-25.2 152.65-23.75 154.1-22.3 154.1-19.55L154.1-19.55Q154.1-18.4 153.83-16.82 153.55-15.25 152.75-12L152.75-12Q152.1-9.45 151.9-8.4 151.7-7.35 151.7-6.65L151.7-6.65Q151.7-5.6 152.2-5.08 152.7-4.55 153.7-4.55L153.7-4.55Q154.95-4.55 155.85-5.4 156.75-6.25 157.9-8.95L157.9-8.95 160-8.95Q158.4-4.3 156.13-2 153.85 0.3 150.7 0.3L150.7 0.3Q147.9 0.3 146.35-1.23 144.8-2.75 144.8-5.35ZM157.2-7.7L157.2-7.7Q157.2-10.55 158.13-13.75 159.05-16.95 160.65-19.45L160.65-19.45Q162.5-22.4 165.1-23.93 167.7-25.45 170.9-25.45L170.9-25.45Q174.1-25.45 175.7-23.45 177.3-21.45 177.3-17.45L177.3-17.45Q177.4-17.4 177.53-17.38 177.65-17.35 177.85-17.35L177.85-17.35Q179.4-17.35 181.55-18.2 183.7-19.05 185.55-20.35L185.55-20.35 186-19Q184.6-17.5 182.28-16.4 179.95-15.3 177.15-14.85L177.15-14.85Q176.55-8.1 173.25-3.95 169.95 0.2 165.2 0.2L165.2 0.2Q161.3 0.2 159.25-1.8 157.2-3.8 157.2-7.7ZM171.3-22.4L171.3-22.4Q168.9-22.4 166.78-17.55 164.65-12.7 164.65-8.35L164.65-8.35Q164.65-6 165.18-5.15 165.7-4.3 167.2-4.3L167.2-4.3Q169.05-4.3 170.72-7.3 172.4-10.3 173-14.7L173-14.7Q172.3-14.85 171.97-15.38 171.65-15.9 171.65-16.8L171.65-16.8Q171.65-17.75 172.05-18.45 172.45-19.15 173.2-19.5L173.2-19.5Q173.1-21.1 172.68-21.75 172.25-22.4 171.3-22.4ZM195.45-20.75L195.45-20.75Q194.65-20.75 194.15-21.53 193.65-22.3 193.65-23.3L193.65-23.3Q193.65-24.55 194.48-25.28 195.3-26 196.75-26L196.75-26Q198.3-26 199.1-24.85 199.9-23.7 199.9-21.65L199.9-21.65Q199.9-18.25 199.03-14.53 198.15-10.8 196.65-7.75L196.65-7.75Q194.65-3.8 191.85-1.75 189.05 0.3 185.65 0.3L185.65 0.3Q182.7 0.3 181.1-1.23 179.5-2.75 179.5-5.6L179.5-5.6Q179.5-6.15 179.58-6.78 179.65-7.4 179.75-8L179.75-8 183.35-25 190.55-25 186.95-8Q186.85-7.45 186.78-6.98 186.7-6.5 186.7-6.2L186.7-6.2Q186.7-5.4 187.13-4.98 187.55-4.55 188.4-4.55L188.4-4.55Q190.15-4.55 191.83-6.38 193.5-8.2 194.85-11.55L194.85-11.55Q195.85-13.95 196.45-16.6 197.05-19.25 197.05-21.25L197.05-21.25Q196.95-21.05 196.43-20.9 195.9-20.75 195.45-20.75ZM216.9-22.7L216.9-22.7 216.9-22.35 217.45-25 224.65-25 221.05-8Q220.95-7.55 220.9-7.18 220.85-6.8 220.85-6.4L220.85-6.4Q220.85-5.3 221.35-4.78 221.85-4.25 222.9-4.25L222.9-4.25Q224.2-4.25 225.25-5.48 226.3-6.7 226.95-8.95L226.95-8.95 229.05-8.95Q227.45-4.35 224.9-2.02 222.35 0.3 219 0.3L219 0.3Q216.85 0.3 215.58-0.9 214.3-2.1 214.1-4.3L214.1-4.3Q212.55-2 210.68-0.85 208.8 0.3 206.65 0.3L206.65 0.3Q203.55 0.3 201.78-1.8 200-3.9 200-7.75L200-7.75Q200-10.55 200.85-13.6 201.7-16.65 203.2-19.15L203.2-19.15Q205.05-22.1 207.5-23.68 209.95-25.25 212.85-25.25L212.85-25.25Q214.8-25.25 215.85-24.58 216.9-23.9 216.9-22.7ZM214.05-8.95L216.45-20.25Q216.45-21 215.9-21.58 215.35-22.15 214.4-22.15L214.4-22.15Q211.65-22.15 209.53-17.55 207.4-12.95 207.4-8.45L207.4-8.45Q207.4-6.5 207.95-5.53 208.5-4.55 209.9-4.55L209.9-4.55Q211.2-4.55 212.43-5.8 213.65-7.05 214.05-8.95L214.05-8.95ZM228.35-23L228.75-25 230.4-25 231.9-31.9 239.3-32.9 237.6-25 240.6-25 240.2-23 237.2-23 234-8Q233.9-7.55 233.85-7.18 233.8-6.8 233.8-6.4L233.8-6.4Q233.8-5.4 234.28-4.98 234.75-4.55 235.85-4.55L235.85-4.55Q237.25-4.55 238.5-5.78 239.75-7 240.35-8.95L240.35-8.95 242.45-8.95Q240.85-4.4 238.15-2.05 235.45 0.3 231.95 0.3L231.95 0.3Q229.45 0.3 228.03-1.28 226.6-2.85 226.6-5.7L226.6-5.7Q226.6-6.35 226.7-7.18 226.8-8 227-8.95L227-8.95 230-23 228.35-23ZM252.7-31.65L252.7-31.65Q252.7-30 251.53-28.85 250.35-27.7 248.7-27.7L248.7-27.7Q247.05-27.7 245.9-28.85 244.75-30 244.75-31.65L244.75-31.65Q244.75-33.3 245.9-34.48 247.05-35.65 248.7-35.65L248.7-35.65Q250.35-35.65 251.53-34.48 252.7-33.3 252.7-31.65ZM239.95-5.7L239.95-5.7Q239.95-6.35 240.05-7.18 240.15-8 240.35-8.95L240.35-8.95 243.75-25 250.95-25 247.35-8Q247.25-7.55 247.2-7.18 247.15-6.8 247.15-6.4L247.15-6.4Q247.15-5.4 247.63-4.98 248.1-4.55 249.2-4.55L249.2-4.55Q250.6-4.55 251.85-5.78 253.1-7 253.7-8.95L253.7-8.95 255.8-8.95Q254.2-4.4 251.5-2.05 248.8 0.3 245.3 0.3L245.3 0.3Q242.8 0.3 241.38-1.28 239.95-2.85 239.95-5.7ZM253-7.7L253-7.7Q253-10.55 253.93-13.75 254.85-16.95 256.45-19.45L256.45-19.45Q258.3-22.4 260.9-23.93 263.5-25.45 266.7-25.45L266.7-25.45Q269.9-25.45 271.5-23.45 273.1-21.45 273.1-17.45L273.1-17.45Q273.2-17.4 273.33-17.38 273.45-17.35 273.65-17.35L273.65-17.35Q275.2-17.35 277.35-18.2 279.5-19.05 281.35-20.35L281.35-20.35 281.8-19Q280.4-17.5 278.08-16.4 275.75-15.3 272.95-14.85L272.95-14.85Q272.35-8.1 269.05-3.95 265.75 0.2 261 0.2L261 0.2Q257.1 0.2 255.05-1.8 253-3.8 253-7.7ZM267.1-22.4L267.1-22.4Q264.7-22.4 262.58-17.55 260.45-12.7 260.45-8.35L260.45-8.35Q260.45-6 260.98-5.15 261.5-4.3 263-4.3L263-4.3Q264.85-4.3 266.53-7.3 268.2-10.3 268.8-14.7L268.8-14.7Q268.1-14.85 267.78-15.38 267.45-15.9 267.45-16.8L267.45-16.8Q267.45-17.75 267.85-18.45 268.25-19.15 269-19.5L269-19.5Q268.9-21.1 268.48-21.75 268.05-22.4 267.1-22.4ZM288.05-5.35L288.05-5.35Q288.05-6.25 288.28-7.6 288.5-8.95 289.2-11.9L289.2-11.9Q289.9-14.75 290.1-16 290.3-17.25 290.3-18.1L290.3-18.1Q290.3-19.35 289.85-20 289.4-20.65 288.5-20.65L288.5-20.65Q287.3-20.65 286.28-19.43 285.25-18.2 284.6-16.05L284.6-16.05 281.2 0 274 0 279.3-25 286.5-25 285.95-22.4Q287.2-23.8 288.65-24.5 290.1-25.2 291.8-25.2L291.8-25.2Q294.45-25.2 295.9-23.75 297.35-22.3 297.35-19.55L297.35-19.55Q297.35-18.4 297.08-16.82 296.8-15.25 296-12L296-12Q295.35-9.45 295.15-8.4 294.95-7.35 294.95-6.65L294.95-6.65Q294.95-5.6 295.45-5.08 295.95-4.55 296.95-4.55L296.95-4.55Q298.2-4.55 299.1-5.4 300-6.25 301.15-8.95L301.15-8.95 303.25-8.95Q301.65-4.3 299.38-2 297.1 0.3 293.95 0.3L293.95 0.3Q291.15 0.3 289.6-1.23 288.05-2.75 288.05-5.35Z" opacity="1" transform="matrix(1,0,0,1,0,0)" fill="#00d1cd" class="undefined-text-1" data-fill-palette-color="secondary" id="text-1"></path></svg></g></svg></g></svg></g></svg></g><g transform="matrix(1,0,0,1,415.3371933547836,0)"><svg viewBox="0 0 166.23385176075413 225.35284276314957" height="225.35284276314957" width="166.23385176075413"><g><svg xmlns="http://www.w3.org/2000/svg" xmlns:xlink="http://www.w3.org/1999/xlink" version="1.1" x="0" y="0" viewBox="13.899999618530273 1.6793489456176758 62.19999694824219 84.32064819335938" enable-background="new 0 0 90 90" xml:space="preserve" height="225.35284276314957" width="166.23385176075413" class="icon-icon-0" data-fill-palette-color="accent" id="icon-0"><g fill="#00d1cd" data-fill-palette-color="accent"><path fill="#00d1cd" d="M70.2 23.2c-4.4-9.2-17.9-9.6-23.4-1.1-6-8.4-19-8.1-23.4 1.1-3.4 7.2 3.4 25.4 8.2 30.9 4.8 5.4 12 1.3 15.2 1.3 3.2 0 10.4 4.1 15.2-1.3S73.7 30.4 70.2 23.2z" data-fill-palette-color="accent"></path><path fill="#00d1cd" d="M47 14.9C49 4.3 56.8 1.4 64.1 1.7 61.6 10.6 55.5 13.6 47 14.9z" data-fill-palette-color="accent"></path><path fill="#00d1cd" d="M45.6 21.9c0.2-3.8 0.3-7.6-0.2-9.7-0.5-2.5-2.2-4.4-2.8-5.1-1.1-1.1-0.2-2 0.6-2.2 1.2-0.3 1.8 0.6 2.4 1.3 0.6 0.8 1.5 2.9 1.8 5.2 0.4 2.8 0.2 7.7 0 10.2C47 26.3 45.6 21.9 45.6 21.9z" data-fill-palette-color="accent"></path><g fill="#00d1cd" data-fill-palette-color="accent"><g fill="#00d1cd" data-fill-palette-color="accent"><path fill="#00d1cd" d="M76.1 86H25.9c-6.6 0-12-5.4-12-12 0-6.6 5.4-12 12-12h50.2v4.7H25.9c-4 0-7.3 3.3-7.3 7.3s3.3 7.3 7.3 7.3h50.2V86z" data-fill-palette-color="accent"></path></g><path fill="#00d1cd" d="M75 68.7H24.7c-1.4 0.3-2.5 1.1-3.3 2.3H75V68.7z" data-fill-palette-color="accent"></path><path fill="#00d1cd" d="M75 72.8H20.7c-0.1 0.4-0.1 0.7-0.1 1.1s0 0.8 0.1 1.1H75V72.8z" data-fill-palette-color="accent"></path><path fill="#00d1cd" d="M75 76.9H21.4c0.7 1.1 1.9 2 3.3 2.3H75V76.9z" data-fill-palette-color="accent"></path></g></g></svg></g></svg></g></svg></g></svg><rect width="395.52" height="153.25996216330472" fill="none" stroke="none" visibility="hidden"></rect></g></svg></g></svg>